<svg id="Group_143334" data-name="Group 143334" xmlns="http://www.w3.org/2000/svg" xmlns:xlink="http://www.w3.org/1999/xlink" width="351.571" height="352.337" viewBox="0 0 351.571 352.337">
  <defs>
    <clipPath id="clip-path">
      <rect id="Rectangle_55585" data-name="Rectangle 55585" width="351.571" height="352.337" fill="none"/>
    </clipPath>
  </defs>
  <g id="Group_143333" data-name="Group 143333" clip-path="url(#clip-path)">
    <path id="Path_76907" data-name="Path 76907" d="M336.188,109.252c7.608,16.871,18.869,49.169,14.343,89.341-5.807,51.541-34.558,92.176-62.525,115.009-92.8,75.77-262.686,26.82-285.183-44.553C-1.258,256.1-.11,243.612,1.3,228.245c4.491-48.875,28.146-63.4,44.055-115.3,14.478-47.228.2-52.542,13.742-73.538C88.468-6.138,173.242-8.433,231.574,13.4c22.405,8.387,76.774,34.115,104.614,95.849" transform="translate(0 0)" fill="#c6e5ff"/>
    <path id="Path_76908" data-name="Path 76908" d="M588.193,967.347l58.295-10.426c.378-.07.5.258.5.6v49.618c0,4.751,33.121,10.962,33.444,10.274l.04,5.244a2.415,2.415,0,0,1-1.952,2.207l-.728.135-.015,0-48.876,9.048a16.043,16.043,0,0,1-6.562-.153l-26.873-6.346a9.782,9.782,0,0,1-7.889-9.728V968.149a.823.823,0,0,1,.615-.8" transform="translate(-474.449 -772.674)" fill="#fff"/>
    <path id="Path_76909" data-name="Path 76909" d="M680.031,934.535v49.629a10.058,10.058,0,0,0,8.092,9.963l18.128,4.385c1.184.286.781,1.949-.532,2.192l-49.808,9.221a15.775,15.775,0,0,1-6.477-.1l-20.086-4.742a10.065,10.065,0,0,1-8.16-9.98V945.428a.494.494,0,0,1,.412-.444l58.019-10.741a.318.318,0,0,1,.412.292" transform="translate(-501.588 -754.364)" fill="#99b9ff"/>
    <path id="Path_76910" data-name="Path 76910" d="M353.452,441.695,126.9,442.2a3.845,3.845,0,0,1-3.919-3.46l-6.442-141.734c-.15-3.435,2.8-6.851,6.208-6.765l223.782,1.183Z" transform="translate(-94.097 -234.361)" fill="#5479f7"/>
    <path id="Path_76911" data-name="Path 76911" d="M162.85,294.432c-3.9,0-7.749,3.951-7.578,7.826l6.093,139.522a4.115,4.115,0,0,0,4.037,3.637l222.53-.361a4.048,4.048,0,0,0,4.026-4.336l-6.511-142.109c-.087-1.97-1.2-4.179-3.185-4.179Z" transform="translate(-125.373 -237.744)" fill="#99b9ff"/>
    <path id="Path_76912" data-name="Path 76912" d="M162.868,441.778a4.737,4.737,0,0,1-4.673-4.246L152.1,298.01a8.048,8.048,0,0,1,2.395-5.787,8.239,8.239,0,0,1,5.819-2.7H379.729c2.344,0,3.718,2.467,3.821,4.788l6.51,142.108A4.818,4.818,0,0,1,388.743,440a4.58,4.58,0,0,1-3.344,1.415l-13.512.022h0a.636.636,0,0,1,0-1.273l13.514-.022a3.321,3.321,0,0,0,2.426-1.022,3.558,3.558,0,0,0,.966-2.649l-6.511-142.109c-.066-1.484-.9-3.572-2.549-3.572H160.315a7.064,7.064,0,0,0-4.9,2.31,6.776,6.776,0,0,0-2.043,4.852l6.094,139.523a3.465,3.465,0,0,0,3.4,3.029l164.3-.267h0a.636.636,0,0,1,0,1.273Z" transform="translate(-122.812 -233.778)"/>
    <path id="Path_76913" data-name="Path 76913" d="M196.419,324.2c-3.585,0-7.129,3.634-6.971,7.2l5.606,128.358a3.785,3.785,0,0,0,3.714,3.346l210.252-.332a3.724,3.724,0,0,0,3.7-3.989l-5.99-130.737c-.08-1.813-1.107-3.845-2.93-3.845Z" transform="translate(-152.969 -261.782)" fill="#caddff"/>
    <path id="Path_76914" data-name="Path 76914" d="M666.106,653.622h8.325l-.206-4.116H665.9Z" transform="translate(-537.692 -524.454)" fill="#fff"/>
    <path id="Path_76915" data-name="Path 76915" d="M651.624,396.556H660.3l-.214-4.284H651.41Z" transform="translate(-525.992 -316.747)" fill="#fff"/>
    <path id="Path_76916" data-name="Path 76916" d="M653.806,433.241h8.609l-.214-4.284h-8.609Z" transform="translate(-527.753 -346.369)" fill="#fff"/>
    <path id="Path_76917" data-name="Path 76917" d="M657.157,469.927h8.172l-.215-4.284h-8.172Z" transform="translate(-530.459 -375.991)" fill="#fff"/>
    <path id="Path_76918" data-name="Path 76918" d="M658.764,506.613h8.318l-.215-4.284h-8.317Z" transform="translate(-531.757 -405.614)" fill="#fff"/>
    <path id="Path_76919" data-name="Path 76919" d="M660.828,543.3h8.318l-.214-4.284h-8.317Z" transform="translate(-533.423 -435.237)" fill="#fff"/>
    <path id="Path_76920" data-name="Path 76920" d="M663.345,615.2h8.243l-.214-4.284H663.13Z" transform="translate(-535.456 -493.292)" fill="#fff"/>
    <path id="Path_76921" data-name="Path 76921" d="M662.59,578.512h7.88l-.214-4.284h-7.88Z" transform="translate(-534.846 -463.67)" fill="#fff"/>
    <path id="Path_76922" data-name="Path 76922" d="M671.682,765.059h8.325l-.206-4.116h-8.325Z" transform="translate(-542.194 -614.436)" fill="#fff"/>
    <path id="Path_76923" data-name="Path 76923" d="M668.921,726.634h8.243l-.214-4.284h-8.243Z" transform="translate(-539.958 -583.274)" fill="#fff"/>
    <path id="Path_76924" data-name="Path 76924" d="M668.166,689.948h7.88l-.214-4.284h-7.88Z" transform="translate(-539.349 -553.651)" fill="#fff"/>
    <path id="Path_76925" data-name="Path 76925" d="M682.54,982.065h8.325l-.206-4.116h-8.325Z" transform="translate(-550.962 -789.661)" fill="#fff"/>
    <path id="Path_76926" data-name="Path 76926" d="M673.592,798.37h8.172l-.215-4.284h-8.172Z" transform="translate(-543.73 -641.198)" fill="#fff"/>
    <path id="Path_76927" data-name="Path 76927" d="M675.2,835.056h8.318l-.214-4.284h-8.317Z" transform="translate(-545.027 -670.82)" fill="#fff"/>
    <path id="Path_76928" data-name="Path 76928" d="M677.262,871.742h8.318l-.215-4.284h-8.317Z" transform="translate(-546.694 -700.443)" fill="#fff"/>
    <path id="Path_76929" data-name="Path 76929" d="M679.779,943.641h8.243l-.214-4.284h-8.243Z" transform="translate(-548.726 -758.499)" fill="#fff"/>
    <path id="Path_76930" data-name="Path 76930" d="M679.025,906.955h7.88l-.214-4.284h-7.88Z" transform="translate(-548.117 -728.877)" fill="#fff"/>
    <path id="Path_76931" data-name="Path 76931" d="M856.8,396.505h-92.06l-.178-4.284h92.06Z" transform="translate(-617.355 -316.705)" fill="#fff"/>
    <path id="Path_76932" data-name="Path 76932" d="M858.318,433.2h-92.06l-.178-4.284h92.06Z" transform="translate(-618.584 -346.332)" fill="#fff"/>
    <path id="Path_76933" data-name="Path 76933" d="M859.84,469.888H767.78L767.6,465.6h92.06Z" transform="translate(-619.813 -375.96)" fill="#fff"/>
    <path id="Path_76934" data-name="Path 76934" d="M861.362,506.579H769.3l-.178-4.284h92.06Z" transform="translate(-621.042 -405.587)" fill="#fff"/>
    <path id="Path_76935" data-name="Path 76935" d="M862.884,543.271h-92.06l-.178-4.284h92.06Z" transform="translate(-622.271 -435.214)" fill="#fff"/>
    <path id="Path_76936" data-name="Path 76936" d="M864.406,579.962h-92.06l-.178-4.284h92.06Z" transform="translate(-623.5 -464.841)" fill="#fff"/>
    <path id="Path_76937" data-name="Path 76937" d="M865.928,616.653h-92.06l-.178-4.284h92.06Z" transform="translate(-624.729 -494.468)" fill="#fff"/>
    <path id="Path_76938" data-name="Path 76938" d="M867.45,653.345H775.39l-.178-4.284h92.06Z" transform="translate(-625.958 -524.095)" fill="#fff"/>
    <path id="Path_76939" data-name="Path 76939" d="M868.916,688.688h-92.06l-.178-4.284h92.06Z" transform="translate(-627.142 -552.633)" fill="#fff"/>
    <path id="Path_76940" data-name="Path 76940" d="M870.438,725.379h-92.06l-.178-4.284h92.06Z" transform="translate(-628.371 -582.26)" fill="#fff"/>
    <path id="Path_76941" data-name="Path 76941" d="M871.96,762.07H779.9l-.178-4.284h92.06Z" transform="translate(-629.6 -611.887)" fill="#fff"/>
    <path id="Path_76942" data-name="Path 76942" d="M873.482,798.762h-92.06l-.178-4.284H873.3Z" transform="translate(-630.829 -641.514)" fill="#fff"/>
    <path id="Path_76943" data-name="Path 76943" d="M875,835.453h-92.06l-.178-4.284h92.06Z" transform="translate(-632.058 -671.141)" fill="#fff"/>
    <path id="Path_76944" data-name="Path 76944" d="M876.526,872.145h-92.06l-.178-4.284h92.06Z" transform="translate(-633.287 -700.768)" fill="#fff"/>
    <path id="Path_76945" data-name="Path 76945" d="M878.049,908.836h-92.06l-.178-4.284h92.06Z" transform="translate(-634.516 -730.395)" fill="#fff"/>
    <path id="Path_76946" data-name="Path 76946" d="M879.57,945.527H787.51l-.178-4.284h92.06Z" transform="translate(-635.745 -760.022)" fill="#fff"/>
    <path id="Path_76947" data-name="Path 76947" d="M879.82,981.411H787.76l-.178-4.284h92.06Z" transform="translate(-635.946 -788.997)" fill="#fff"/>
    <path id="Path_76948" data-name="Path 76948" d="M305.65,394.692H261.229L261,390.408h44.421Z" transform="translate(-210.75 -315.241)" fill="#99b9ff"/>
    <path id="Path_76949" data-name="Path 76949" d="M307.6,431.384H263.174l-.227-4.284h44.421Z" transform="translate(-212.321 -344.869)" fill="#99b9ff"/>
    <path id="Path_76950" data-name="Path 76950" d="M309.542,468.076H265.121l-.227-4.284h44.421Z" transform="translate(-213.893 -374.496)" fill="#99b9ff"/>
    <path id="Path_76951" data-name="Path 76951" d="M311.488,504.767H267.066l-.227-4.284H311.26Z" transform="translate(-215.464 -404.123)" fill="#99b9ff"/>
    <path id="Path_76952" data-name="Path 76952" d="M313.433,541.458H269.012l-.227-4.284h44.421Z" transform="translate(-217.035 -433.75)" fill="#99b9ff"/>
    <path id="Path_76953" data-name="Path 76953" d="M315.378,578.15H270.957l-.227-4.284h44.421Z" transform="translate(-218.605 -463.377)" fill="#99b9ff"/>
    <path id="Path_76954" data-name="Path 76954" d="M568.741,423.94a1.79,1.79,0,0,0-.663-1.581l-43.946-34.527a5.771,5.771,0,0,0-6.826-.068l-48.195,33.9a2.159,2.159,0,0,0-.943,1.567l2.9,68.425a2.055,2.055,0,0,0,2.1,1.967l95.026.673a3.375,3.375,0,0,0,3.387-3.4Z" transform="translate(-378.03 -312.232)" fill="#fff"/>
    <path id="Path_76955" data-name="Path 76955" d="M565.544,492.3h-.028l-95.026-.672a2.688,2.688,0,0,1-2.729-2.577l-2.9-68.425a.627.627,0,0,1,0-.084,2.813,2.813,0,0,1,1.217-2.034L514.27,384.61a6.441,6.441,0,0,1,7.589.092L565.8,419.226a2.434,2.434,0,0,1,.908,2.094l2.836,66.914a3.859,3.859,0,0,1-1.1,2.816,4.056,4.056,0,0,1-2.9,1.248m-99.408-71.682,2.9,68.378a1.415,1.415,0,0,0,1.466,1.358l95.026.672a2.735,2.735,0,0,0,2-.859,2.58,2.58,0,0,0,.746-1.878l-2.837-66.953a.611.611,0,0,1,0-.084,1.151,1.151,0,0,0-.425-1.026L521.069,385.7a5.16,5.16,0,0,0-6.075-.042l-48.186,33.892a1.541,1.541,0,0,0-.672,1.066" transform="translate(-375.36 -309.6)"/>
    <path id="Path_76956" data-name="Path 76956" d="M494.742,543.878l88.6.73-3.331-77.383a1.353,1.353,0,0,0-1.376-1.486l-86.075-.609a1.653,1.653,0,0,0-1.643,1.464Z" transform="translate(-396.402 -375.577)" fill="#caddff"/>
    <path id="Path_76957" data-name="Path 76957" d="M580.676,542.576h-.005l-88.6-.73a.636.636,0,0,1-.63-.6l-3.821-77.284a.625.625,0,0,1,0-.089,2.3,2.3,0,0,1,2.265-2.043h.015l86.075.609a2.022,2.022,0,0,1,1.5.658,1.972,1.972,0,0,1,.5,1.475l3.33,77.344a.637.637,0,0,1-.636.664m-88-2,87.333.719-3.3-76.714a.631.631,0,0,1,0-.085.713.713,0,0,0-.176-.551.762.762,0,0,0-.57-.241l-86.075-.609h-.007a1.024,1.024,0,0,0-.993.847Z" transform="translate(-393.732 -372.908)"/>
    <path id="Path_76958" data-name="Path 76958" d="M572.375,523.705l58.078.44a2.652,2.652,0,0,0,2.637-2.347,2.17,2.17,0,0,0-2.207-2.384l-58.078-.44a2.653,2.653,0,0,0-2.637,2.347,2.17,2.17,0,0,0,2.207,2.384" transform="translate(-460.384 -419.054)" fill="#fff"/>
    <path id="Path_76959" data-name="Path 76959" d="M683.678,581.392l37.633.285a2.652,2.652,0,0,0,2.637-2.347,2.17,2.17,0,0,0-2.207-2.384l-37.632-.285a2.653,2.653,0,0,0-2.637,2.348,2.17,2.17,0,0,0,2.207,2.384" transform="translate(-550.257 -465.634)" fill="#fff"/>
    <path id="Path_76960" data-name="Path 76960" d="M469.407,587.221a2.1,2.1,0,0,1,3.227-1.818l45.493,32.822c.134.085.273.166.415.239,2.206,1.12,4.331,1.56,6.335.6a5.634,5.634,0,0,0,1.445-1.027L566.063,586.2a2.26,2.26,0,0,1,3.795,1.442l3.166,64.673a2.139,2.139,0,0,1-2.15,2.168l-96.778-.794A1.764,1.764,0,0,1,472.3,652Z" transform="translate(-379.028 -472.413)" fill="#fff"/>
    <path id="Path_76961" data-name="Path 76961" d="M568.222,652.455H568.2l-96.778-.794a2.4,2.4,0,0,1-2.428-2.293l-2.89-64.783a2.7,2.7,0,0,1,1.455-2.488,2.6,2.6,0,0,1,2.778.124l45.495,32.823c.086.054.207.125.331.188,2.321,1.179,4.155,1.367,5.771.592a5,5,0,0,0,1.28-.913.465.465,0,0,1,.042-.037L563,583.038a3.1,3.1,0,0,1,3.221-.459,2.693,2.693,0,0,1,1.607,2.366l3.166,64.673a2.673,2.673,0,0,1-.758,1.967,2.8,2.8,0,0,1-2.011.868m-99.346-69.429a1.493,1.493,0,0,0-.71.19,1.445,1.445,0,0,0-.791,1.313l2.891,64.783a1.128,1.128,0,0,0,1.168,1.077l96.778.794h.012a1.527,1.527,0,0,0,1.093-.477,1.4,1.4,0,0,0,.4-1.024l-3.165-64.673a1.424,1.424,0,0,0-.859-1.268,1.839,1.839,0,0,0-1.9.292l-39.72,31.818a6.249,6.249,0,0,1-1.589,1.122c-1.974.946-4.231.749-6.9-.605-.161-.082-.318-.173-.469-.27l-45.523-32.843a1.22,1.22,0,0,0-.718-.228" transform="translate(-376.361 -469.748)"/>
    <path id="Path_76962" data-name="Path 76962" d="M537.082,782.413a.636.636,0,0,1-.437-1.1l23.547-22.24a.636.636,0,0,1,.874.925l-23.547,22.24a.635.635,0,0,1-.437.174" transform="translate(-433.162 -612.787)" fill="#5479f7"/>
    <path id="Path_76963" data-name="Path 76963" d="M852.852,783.674a.634.634,0,0,1-.454-.19l-21.821-22.2a.636.636,0,1,1,.907-.892l21.821,22.2a.636.636,0,0,1-.454,1.082" transform="translate(-670.515 -613.837)" fill="#5479f7"/>
    <path id="Path_76967" data-name="Path 76967" d="M318.426,1493.784c-6.772-26.43-29.636-44.418-53.8-22.868-8.542,16.524,16.652,31.407,45.335,33.088a8.236,8.236,0,0,0,8.47-10.22" transform="translate(-212.308 -1179.988)" fill="#99b9ff"/>
    <path id="Path_76968" data-name="Path 76968" d="M352.747,1290.545s-10.074,2.122-18.645-1.584c-5.253-2.272-22.665.83-18.022-9.593,1-2.244,1.562-3.75,3.862-5.722a26.194,26.194,0,0,1,6.45-3.8c8.925-2.85,16.816-3.6,25.58,3.609,1.688,1.388,14.421,5.993,14.421,5.993,1.515.345,55.865,14.376,62.592,4.092l34.144-67.262,19.154,53.541s-14.062,22.375-19.015,29.658c-10.656,15.668-25.51,27.783-36.651,27.46-21.472-.622-54.9-25.844-67.813-32.952,0,0-5.6-3.489-6.058-3.435" transform="translate(-254.596 -982.099)" fill="#fff"/>
    <path id="Path_76969" data-name="Path 76969" d="M424.392,1320.839q-.223,0-.443-.006c-16.748-.486-40.657-15.758-56.478-25.865-4.665-2.98-8.694-5.554-11.623-7.166-2.408-1.5-5.123-3.1-5.758-3.342-1.3.253-10.675,1.9-18.891-1.651-1.443-.624-3.993-.825-6.693-1.039-4.747-.375-10.129-.8-11.9-3.778-.857-1.443-.776-3.333.242-5.619l.2-.445a13.026,13.026,0,0,1,3.832-5.5,26.94,26.94,0,0,1,6.67-3.927c9.36-2.99,17.393-3.5,26.179,3.724,1.174.965,9.119,4.036,14.2,5.873l.53.13c26.643,6.587,56.724,11.158,61.331,4.253l34.8-68.547,19.756,55.223-.165.262c-.14.224-14.125,22.469-19.028,29.677-11.339,16.672-26.036,27.744-36.753,27.744M350.1,1283.173c.292,0,1.149.264,6.392,3.532,2.936,1.614,6.981,4.2,11.665,7.191,15.7,10.031,39.433,25.19,55.83,25.665.138,0,.278.006.418.006,10.306,0,24.578-10.851,35.689-27.187,4.6-6.766,17.245-26.845,18.838-29.378l-18.552-51.859-33.491,65.976-.019.029c-1.931,2.952-7.364,4.056-14.4,4.057-14.856,0-36.879-4.915-48.316-7.743-.291-.072-.477-.118-.547-.134l-.075-.022c-1.314-.475-12.885-4.683-14.609-6.1-8.367-6.88-15.762-6.439-24.983-3.494a25.688,25.688,0,0,0-6.229,3.682,11.706,11.706,0,0,0-3.5,5.05l-.2.448c-.852,1.913-.954,3.369-.311,4.451,1.434,2.412,6.466,2.809,10.906,3.16,2.808.222,5.46.431,7.1,1.14,8.279,3.58,18.162,1.567,18.261,1.546l.056-.009a.617.617,0,0,1,.077-.005" transform="translate(-251.945 -975.365)"/>
    <path id="Path_76970" data-name="Path 76970" d="M1012.28,1017.088s-35.2,4.666-46.889,18.916c-14.806,18.048-25.8,62.87-26.9,67.339l-1,3.042c3.041,13.664,21.208,23.349,35.181,22.621l-.7,0c2.259-.118,6.622-2,7.579-4.047l2.629-5.617.348,2.433c2.78,17.959-10.49,46.363-10.49,46.363l40.393-9.42c21.39-2.149,39.97-11.882,56.3-25.87,8.866-7.6,15.772-15.707,18.729-24.337,5.022-14.653,6.286-16.519,7.694-34.3a47.806,47.806,0,0,0-10.181-33.674c-11.152-13.926-32.622-28.539-72.7-23.452" transform="translate(-756.996 -820.43)" fill="#2a9dfe"/>
    <path id="Path_76971" data-name="Path 76971" d="M1154.528,1496.562a.637.637,0,0,1-.574-.91l9.859-20.712a.636.636,0,0,1,1.149.547L1155.1,1496.2a.636.636,0,0,1-.575.363" transform="translate(-931.729 -1190.672)" fill="#99b9ff"/>
    <path id="Path_76972" data-name="Path 76972" d="M1276.292,565.421l-2.585-1.724a5.394,5.394,0,0,1-2.083-6.349c2.6-7.019,12.064-19.251,46.5-9.96,35.115,9.473,28.907,65.84-1.008,77.886s-40.073-49.878-40.073-49.878Z" transform="translate(-1026.527 -439.291)"/>
    <path id="Path_76973" data-name="Path 76973" d="M1267.446,653.787a2.344,2.344,0,0,0-4.344-.723c-2.628,4.614-3.88,7.824-4.3,9.784-.565,2.635,1.881,5.27.564,8.093s-3.386,6.023-3.575,11.1c-.184,4.966-5.218,27.723,12.456,27a1.205,1.205,0,0,1,1.265,1.213c-.043,3.464-.228,12.992-1,18.15a5.646,5.646,0,0,0,4.066,6.256c7.076,2,20.249,4.813,30.107,1.606a4.787,4.787,0,0,0,2.995-6.18c-1.165-3.237-2.793-12.335-1.727-17.747a43.557,43.557,0,0,1-12.476-3.6,22.836,22.836,0,0,1-12.283-26.693c.6-2.315,1.9-5.606.546-9.092-3.491-8.992-8.711.046-8.711.046Z" transform="translate(-1013.364 -526.366)" fill="#fff"/>
    <path id="Path_76974" data-name="Path 76974" d="M1289.612,735.693a76.695,76.695,0,0,1-19.882-3.08,6.3,6.3,0,0,1-4.522-6.962,171.411,171.411,0,0,0,.99-18.064.548.548,0,0,0-.168-.405.592.592,0,0,0-.435-.164c-4.306.174-7.663-1-9.991-3.5-5.139-5.507-3.987-15.964-3.368-21.583.117-1.065.218-1.985.241-2.586a22.76,22.76,0,0,1,2.932-9.916c.247-.493.485-.969.7-1.435.635-1.362.244-2.714-.171-4.146a7.746,7.746,0,0,1-.439-3.812c.359-1.676,1.408-4.765,4.369-9.966a2.98,2.98,0,0,1,5.522.921l3.3,17.711c1.025-1.334,2.826-3.181,4.808-3.028,1.677.129,3.074,1.6,4.153,4.382,1.248,3.215.379,6.275-.255,8.509-.1.341-.189.666-.269.973a22.228,22.228,0,0,0,11.932,25.955,43.238,43.238,0,0,0,12.273,3.544l.7.069-.136.688c-1.044,5.3.576,14.283,1.7,17.409a5.411,5.411,0,0,1-.232,4.248,5.337,5.337,0,0,1-3.164,2.753,34.534,34.534,0,0,1-10.594,1.481m-23.993-29.949a1.87,1.87,0,0,1,1.3.525,1.811,1.811,0,0,1,.553,1.333,172.341,172.341,0,0,1-1,18.236,5.022,5.022,0,0,0,3.61,5.55c6.935,1.959,20.02,4.774,29.736,1.613a4.075,4.075,0,0,0,2.415-2.1,4.151,4.151,0,0,0,.178-3.257c-1.153-3.2-2.729-11.772-1.87-17.414a45.006,45.006,0,0,1-12-3.569,23.5,23.5,0,0,1-12.633-27.431c.082-.316.177-.651.276-1,.618-2.176,1.386-4.884.293-7.7-.609-1.569-1.635-3.462-3.063-3.573-1.859-.144-3.878,2.628-4.5,3.708l-.861,1.487-3.9-20.914a1.707,1.707,0,0,0-3.165-.524c-3.033,5.326-3.952,8.3-4.231,9.6a6.722,6.722,0,0,0,.417,3.192c.44,1.52.939,3.243.1,5.038-.222.476-.465.962-.717,1.466a21.381,21.381,0,0,0-2.8,9.394c-.024.647-.123,1.543-.248,2.679-.6,5.415-1.706,15.5,3.034,20.575,2.063,2.211,5.091,3.25,9.008,3.092l.075,0" transform="translate(-1010.684 -523.696)"/>
    <path id="Path_76975" data-name="Path 76975" d="M1568.972,608.85s17.279-8.25,29.846,3.536,24.741,37.716,5.89,66c-11.846,17.777-16.4,31.83-18.153,39.818a3.1,3.1,0,0,1-5.608,1.066c-7.586-11.393-21.427-36.521-14.724-60.135,9.032-31.823,2.749-50.288,2.749-50.288" transform="translate(-1263.234 -489.359)"/>
    <path id="Path_76976" data-name="Path 76976" d="M1241.681,721.064c-7.394-4.439-1.461-16.966-1.2-17.5l.283-.586,17.161,8.765-.579,1.133-15.983-8.163c-1.05,2.469-4.594,11.912.979,15.258Z" transform="translate(-999.629 -567.633)"/>
    <path id="Path_76977" data-name="Path 76977" d="M1241.2,793.952a.634.634,0,0,1-.448-.184l-2.262-2.243a3.161,3.161,0,0,1-.345-4.1l1.556-2.172a.637.637,0,0,1,1.035.741l-1.556,2.172a1.894,1.894,0,0,0,.207,2.457l2.261,2.243a.636.636,0,0,1-.448,1.088" transform="translate(-999.276 -633.85)"/>
    <path id="Path_76978" data-name="Path 76978" d="M1337.65,816.334a5.319,5.319,0,0,1-2.932-.9.636.636,0,0,1,.753-1.027,4.01,4.01,0,0,0,3.074.546c1.584-.4,2.991-1.857,4.18-4.324a.636.636,0,0,1,1.147.553c-1.366,2.834-3.061,4.52-5.038,5.011a4.893,4.893,0,0,1-1.184.145" transform="translate(-1077.531 -654.262)"/>
    <path id="Path_76979" data-name="Path 76979" d="M1540.415,593.81s-16.055,4.837-9.483,20.242c0,0-7.417-5.354-7.23-13.714s6.385-11.084,10.516-10.99,6.2,4.462,6.2,4.462" transform="translate(-1230.335 -475.877)" fill="#fff"/>
    <path id="Path_76980" data-name="Path 76980" d="M1529.746,613.236l-1.856-1.34c-.314-.227-7.686-5.649-7.493-14.244.111-4.927,2.243-7.691,4.012-9.143a11,11,0,0,1,7.155-2.469c4.473.1,6.666,4.633,6.758,4.826l.315.667-.707.214c-.069.021-6.913,2.151-9.56,7.823-1.544,3.308-1.383,7.2.478,11.56Zm1.591-25.926a9.907,9.907,0,0,0-6.121,2.183,10.478,10.478,0,0,0-3.547,8.188c-.119,5.312,3.027,9.409,5.131,11.545a13.966,13.966,0,0,1,.42-10.2c2.38-5.09,7.633-7.491,9.594-8.234-.716-1.131-2.5-3.413-5.28-3.477l-.2,0" transform="translate(-1227.666 -473.205)"/>
    <path id="Path_76981" data-name="Path 76981" d="M1234.792,1309.285c-12.987,8.433-39.556,20.714-82.99,19.456a7.275,7.275,0,0,0-7.109,4.92l-2.357,10.914a131.968,131.968,0,0,1-24.509,52.755l-6.224,8.068a1.782,1.782,0,0,0,1.6,2.862l28.514-3.017c48.851-8.067,86.177-33.906,96.964-79.142l2.877-12.065a4.448,4.448,0,0,0-6.763-4.751" transform="translate(-897.279 -1056.609)" fill="#fff"/>
    <path id="Path_76982" data-name="Path 76982" d="M1109.157,1406.258a2.26,2.26,0,0,1-1.776-3.64l6.452-8.363a132.147,132.147,0,0,0,24.39-52.5l2.357-10.914a.566.566,0,0,1,.019-.071,7.878,7.878,0,0,1,7.73-5.35c44.005,1.271,70.652-11.579,82.625-19.354a5.084,5.084,0,0,1,7.729,5.432l-2.877,12.065a94.531,94.531,0,0,1-32.1,51.985c-15.316,12.708-35.03,21.587-58.595,26.388a.636.636,0,0,1-.254-1.247c48.295-9.84,80.156-37.336,89.715-77.421l2.878-12.066a3.812,3.812,0,0,0-5.8-4.069c-12.1,7.855-39.018,20.841-83.355,19.558l-.2,0a6.605,6.605,0,0,0-6.278,4.458l-2.349,10.877a133.411,133.411,0,0,1-24.627,53.01l-6.452,8.363a.987.987,0,0,0,.884,1.584l6.736-.713a.636.636,0,0,1,.134,1.266l-6.736.713a2.4,2.4,0,0,1-.25.013" transform="translate(-893.788 -1053.922)"/>
    <path id="Path_76983" data-name="Path 76983" d="M515.754,71.3a.636.636,0,0,1-.314-1.19,145.916,145.916,0,0,1,96.923-17.057.636.636,0,0,1-.206,1.256,144.643,144.643,0,0,0-96.091,16.908.633.633,0,0,1-.313.083" transform="translate(-415.939 -41.184)"/>
    <path id="Path_76984" data-name="Path 76984" d="M153.252,1629.037a.635.635,0,0,1-.129-.013c-31.246-6.412-59.562-34.606-59.844-34.89a.636.636,0,1,1,.9-.9c.28.281,28.333,28.207,59.2,34.541a.636.636,0,0,1-.127,1.26" transform="translate(-75.171 -1286.334)"/>
    <path id="Path_76985" data-name="Path 76985" d="M55.157,1590.5a.632.632,0,0,1-.24-.047c-.217-.089-21.948-9.145-42.582-33.993a.636.636,0,1,1,.979-.813c20.417,24.587,41.869,33.54,42.084,33.628a.636.636,0,0,1-.241,1.226" transform="translate(-9.842 -1255.95)"/>
    <path id="Path_76986" data-name="Path 76986" d="M166.044,1345.049a4.94,4.94,0,0,0-5.082,4.9,5.12,5.12,0,0,0,4.9,5.227,4.94,4.94,0,0,0,5.082-4.9,5.12,5.12,0,0,0-4.9-5.228" transform="translate(-129.97 -1086.08)" fill="#fff"/>
    <path id="Path_76987" data-name="Path 76987" d="M98.917,1281.838a.642.642,0,0,1-.163-.021l-3.592-.948a.636.636,0,0,1,.325-1.231l3.592.948a.636.636,0,0,1-.162,1.252" transform="translate(-76.457 -1033.248)"/>
    <path id="Path_76988" data-name="Path 76988" d="M142.383,1293.3a.653.653,0,0,1-.163-.021l-3.592-.948a.636.636,0,0,1,.325-1.23l3.592.948a.636.636,0,0,1-.162,1.252" transform="translate(-111.554 -1042.507)"/>
    <path id="Path_76989" data-name="Path 76989" d="M129.66,1261.6a.637.637,0,0,1-.616-.8l.947-3.594a.636.636,0,1,1,1.23.324l-.947,3.594a.636.636,0,0,1-.615.474" transform="translate(-104.182 -1014.77)"/>
    <path id="Path_76990" data-name="Path 76990" d="M118.2,1305.087a.648.648,0,0,1-.163-.021.637.637,0,0,1-.453-.777l.947-3.594a.636.636,0,1,1,1.23.325l-.947,3.594a.636.636,0,0,1-.615.474" transform="translate(-94.926 -1049.884)"/>
    <path id="Path_76991" data-name="Path 76991" d="M826.152,95.824a.636.636,0,0,1-.569-.919,5.324,5.324,0,0,1,3.852-2.836,5.106,5.106,0,0,1,2.608.819,5.632,5.632,0,0,0,2.623.865,4.831,4.831,0,0,0,2.123-1.236,5.642,5.642,0,0,1,3.232-1.627h.021a4.517,4.517,0,0,1,2.653,1.521c.613.549,1.308,1.172,1.773,1.191h.037a3.848,3.848,0,0,0,1.954-1.135,4.423,4.423,0,0,1,1.466-.966.636.636,0,1,1,.346,1.225,4.315,4.315,0,0,0-.992.715,4.517,4.517,0,0,1-2.863,1.433,4.676,4.676,0,0,1-2.57-1.514c-.626-.561-1.336-1.2-1.8-1.2h-.006a4.857,4.857,0,0,0-2.453,1.349,5.535,5.535,0,0,1-2.839,1.511,6.671,6.671,0,0,1-3.276-1,4.613,4.613,0,0,0-1.909-.688,4.1,4.1,0,0,0-2.836,2.137.638.638,0,0,1-.57.351" transform="translate(-666.577 -73.391)"/>
    <path id="Path_76992" data-name="Path 76992" d="M1338.363,123.188a.636.636,0,0,1-.547-.96l18.142-30.663a.636.636,0,1,1,1.1.648l-18.143,30.662a.636.636,0,0,1-.548.312" transform="translate(-1080.169 -73.683)"/>
    <path id="Path_76993" data-name="Path 76993" d="M1370.1,180.943a.636.636,0,0,1-.489-1.043l14.038-16.891a.636.636,0,1,1,.978.813l-14.038,16.891a.634.634,0,0,1-.49.23" transform="translate(-1105.793 -131.438)"/>
    <path id="Path_76994" data-name="Path 76994" d="M1312.394,207.253a.647.647,0,0,1-.161-.021.637.637,0,0,1-.456-.776l2.762-10.618a.637.637,0,0,1,1.232.32l-2.762,10.618a.637.637,0,0,1-.616.476" transform="translate(-1059.2 -157.748)"/>
    <path id="Path_76995" data-name="Path 76995" d="M1385.912,297.917a.636.636,0,0,1-.324-1.184l25.626-15.163a.636.636,0,1,1,.648,1.1l-25.626,15.163a.632.632,0,0,1-.323.089" transform="translate(-1118.564 -227.287)"/>
    <path id="Path_76996" data-name="Path 76996" d="M1385.913,270.9a.637.637,0,0,1-.407-1.126l16.891-14.038a.636.636,0,1,1,.814.979l-16.891,14.039a.634.634,0,0,1-.407.147" transform="translate(-1118.564 -206.379)"/>
    <path id="Path_76997" data-name="Path 76997" d="M1385.911,363.6a.636.636,0,0,1-.16-1.252l21.883-5.692a.636.636,0,1,1,.321,1.232l-21.883,5.692a.637.637,0,0,1-.161.021" transform="translate(-1118.563 -287.973)"/>
    <path id="Path_76998" data-name="Path 76998" d="M1623.449,234.75a3.554,3.554,0,1,1,1.423-.3,3.549,3.549,0,0,1-1.423.3m0-5.822a2.274,2.274,0,1,0,2.085,1.361,2.259,2.259,0,0,0-2.085-1.361" transform="translate(-1308.017 -183.824)"/>
    <path id="Path_76999" data-name="Path 76999" d="M1695.336,303.98a.635.635,0,0,1-.47-.208l-3.965-4.358a.636.636,0,0,1,.3-1.04c2.635-.756,5.351-1.289,5.378-1.294a.637.637,0,0,1,.741.774l-1.36,5.639a.637.637,0,0,1-.619.487m-2.8-4.657,2.459,2.7.843-3.495c-.806.174-2.021.45-3.3.791" transform="translate(-1365.212 -239.873)"/>
    <path id="Path_77000" data-name="Path 77000" d="M1730.1,177.968s-4.241.828-8.41,2.024l6.263,6.884Z" transform="translate(-1390.21 -143.703)" fill="#99b9ff"/>
  </g>
</svg>
