<svg xmlns="http://www.w3.org/2000/svg" id="Layer_1" data-name="Layer 1" viewBox="0 0 500 500"><defs><style>.cls-1{fill:#caddff;}.cls-2{fill:#99b9ff;}.cls-3{fill:#fff;}.cls-4{fill:#5479f7;}</style></defs><g id="Sign_in_page" data-name="Sign in page"><path class="cls-1" d="M298.83,19.92c-14.59,0-147.71,2-220.46,111.84-38.72,58.47-64.7,154.07-26.74,206.16,11.2,15.38,17.08,12,77,48.41,82.25,50,81.86,62.84,115.91,74.28,44.32,14.88,109.81,14.85,158.86-21.7,55.66-41.48,63.89-110.41,72.14-179.45,8.09-67.75,16.28-136.4-26.75-187C404.16,20.09,332.46,20,298.83,19.92Z"></path><path class="cls-2" d="M471,320.51,213.52,284.7a12.93,12.93,0,0,1-11.3-12.84L198.69,92.29a89.16,89.16,0,0,1,9.19-5.86,10,10,0,0,1,5.67-.92l256.68,32.73a13,13,0,0,1,11.31,12.84V307.46a10,10,0,0,1-3.67,7.77C475.82,316.92,471,320.51,471,320.51Z"></path><path class="cls-3" d="M463.12,322.89,206.43,290.16a13,13,0,0,1-11.3-12.84V100.94a10.06,10.06,0,0,1,11.33-10L463.14,123.7a12.94,12.94,0,0,1,11.31,12.84V312.91A10.06,10.06,0,0,1,463.12,322.89Z"></path><path class="cls-1" d="M457.66,315.62,212.57,284.37a9.42,9.42,0,0,1-8.23-9.34V104.9a6.73,6.73,0,0,1,7.57-6.67L457,129.49a9.41,9.41,0,0,1,8.22,9.34V309A6.71,6.71,0,0,1,457.66,315.62Z"></path><path class="cls-4" d="M464.39,323.79a10.51,10.51,0,0,1-1.37-.09L206.33,291a13.78,13.78,0,0,1-12-13.64V100.94a10.88,10.88,0,0,1,12.25-10.79l256.69,32.74a13.79,13.79,0,0,1,12,13.65V312.91a10.89,10.89,0,0,1-10.88,10.88Zm-1.17-1.7a9.26,9.26,0,0,0,10.42-9.18V136.54a12.17,12.17,0,0,0-10.6-12L206.36,91.77a9.24,9.24,0,0,0-10.42,9.17V277.32a12.16,12.16,0,0,0,10.6,12Z"></path><path class="cls-2" d="M313.37,426.77l-264-34A3.64,3.64,0,0,1,46.17,389c0-1.2.12-9.6.12-9.6l139.58-79.8a39.94,39.94,0,0,1,24-4.51l260.65,33.62a4.46,4.46,0,0,1,3.54,2.68l.42,1s-.23,7-.14,8.64a3.56,3.56,0,0,1-1.84,3.37L336.46,422.19A37.13,37.13,0,0,1,313.37,426.77Z"></path><path class="cls-3" d="M81.85,387.51l-31.53-4.08A3.66,3.66,0,0,1,49,376.61L184.32,299.3a37,37,0,0,1,23.09-4.57l263,34a3.66,3.66,0,0,1,1.35,6.82L336.46,412.84a37.05,37.05,0,0,1-23.09,4.57L81.85,387.51Z"></path><path class="cls-1" d="M364.87,374.5,136.78,344.82a3.31,3.31,0,0,1-1.23-6.16l53.64-30.32A33.46,33.46,0,0,1,210,304.2l228.09,29.68a3.32,3.32,0,0,1,1.23,6.17l-53.64,30.32A33.39,33.39,0,0,1,364.87,374.5Z"></path><path class="cls-2" d="M318,418.52a37.63,37.63,0,0,1-4.75-.3L184.45,401.7a.81.81,0,0,1-.7-.91.8.8,0,0,1,.91-.7l128.81,16.52a36.49,36.49,0,0,0,22.58-4.48L471.4,334.82a2.85,2.85,0,0,0-1-5.31l-263-34A36.52,36.52,0,0,0,184.72,300l-19,10.83a.81.81,0,1,1-.81-1.41l19-10.83a38.06,38.06,0,0,1,23.59-4.68l263.05,34a4.48,4.48,0,0,1,1.65,8.34l-135.35,77.3A38.1,38.1,0,0,1,318,418.52Z"></path><path class="cls-2" d="M437.26,307.27,234.55,281.63a7.6,7.6,0,0,1-6.32-7.47V26.8a5.6,5.6,0,0,1,6.32-5.87L437.26,46.57A7.59,7.59,0,0,1,443.58,54V301.4A5.61,5.61,0,0,1,437.26,307.27Z"></path><path d="M438,308.13a6.36,6.36,0,0,1-.87-.06h0L234.44,282.43a8.43,8.43,0,0,1-7-8.27V26.8a6.78,6.78,0,0,1,2.23-5.19,6.26,6.26,0,0,1,5-1.49L437.37,45.76a8.44,8.44,0,0,1,7,8.28V301.4a6.77,6.77,0,0,1-2.23,5.18A6.18,6.18,0,0,1,438,308.13Zm-.66-1.67a4.64,4.64,0,0,0,3.72-1.1,5.17,5.17,0,0,0,1.68-4V54a6.78,6.78,0,0,0-5.61-6.67L234.44,21.73a4.66,4.66,0,0,0-3.72,1.1,5.19,5.19,0,0,0-1.68,4V274.16a6.77,6.77,0,0,0,5.61,6.66Z"></path><path class="cls-3" d="M405.67,170.42l-139-17.58a3.17,3.17,0,0,1-2.64-3.11V136.38a2.33,2.33,0,0,1,2.64-2.44l139,17.58a3.16,3.16,0,0,1,2.63,3.11V168A2.34,2.34,0,0,1,405.67,170.42Z"></path><path class="cls-3" d="M406.72,208.35l-140-17.72a2.52,2.52,0,0,1-2.11-2.49V173.69a1.87,1.87,0,0,1,2.11-2l140.05,17.72a2.54,2.54,0,0,1,2.11,2.49v14.45A1.87,1.87,0,0,1,406.72,208.35Z"></path><path class="cls-1" d="M384.87,245.05l-97.41-12.32a3.47,3.47,0,0,1-2.89-3.42V216.52a2.56,2.56,0,0,1,2.89-2.69l97.41,12.32a3.49,3.49,0,0,1,2.9,3.42v12.79A2.57,2.57,0,0,1,384.87,245.05Z"></path><ellipse class="cls-4" cx="336.82" cy="93.41" rx="29.09" ry="32.83" transform="translate(19.67 240.35) rotate(-40.36)"></ellipse><ellipse class="cls-3" cx="336.29" cy="89.08" rx="10.15" ry="11.46" transform="translate(22.35 238.98) rotate(-40.36)"></ellipse><path class="cls-3" d="M314.33,111.86a45.85,45.85,0,0,1,12.86-9.34,4.63,4.63,0,0,1,3.77,0c4.82,2.12,8.58,1.88,12.75.82a4.05,4.05,0,0,1,3.1.53A41.94,41.94,0,0,1,360,116.64C346.42,130.27,324.71,125.43,314.33,111.86Z"></path><path class="cls-1" d="M336.82,125.83c-17.66-2.14-32-18.43-32-36.3s14.36-30.68,32-28.54,32,18.43,32,36.3S354.47,128,336.82,125.83Zm0-62.2c-16.22-2-29.42,9.8-29.42,26.21s13.2,31.38,29.42,33.35,29.41-9.8,29.41-26.21S353,65.6,336.82,63.63Z"></path><path class="cls-4" d="M79.09,245.4c-7.51,2.79-13.89,8.66-18.23,16.38-11.07,19.71-40,77.49-26.31,122.1,16.75,54.65,158.31,53.18,195.2,29.93,9.37-5.91,47.72-45.77-1.5-78.9-45.12-30.37-63.77-8.08-84.57-20s-35.83-60-43.51-66.81C95.22,243.65,87.51,242.28,79.09,245.4Z"></path><path class="cls-2" d="M122.63,376.9a.8.8,0,0,1-.57-.24C103.35,358,59.85,355.75,59.42,355.73a.81.81,0,1,1,.07-1.62c1.81.08,44.57,2.26,63.72,21.4a.81.81,0,0,1,0,1.15A.82.82,0,0,1,122.63,376.9Z"></path><path class="cls-2" d="M166.45,377.92a.78.78,0,0,1-.33-.07c-14.58-6.49-24.88-.67-25-.61a.81.81,0,1,1-.82-1.4c.44-.26,11.08-6.32,26.47.53a.81.81,0,0,1,.41,1.07A.82.82,0,0,1,166.45,377.92Z"></path><path class="cls-3" d="M232.88,412.5c.13.43,15.76,18.09,15.76,18.09l-10.42,4.1-12.58-15.32Z"></path><path d="M238.22,435.51a.83.83,0,0,1-.63-.3L225,419.89a.82.82,0,0,1,.07-1.11l7.24-6.87a.84.84,0,0,1,.77-.19.79.79,0,0,1,.51.4c.63.89,9.68,11.18,15.65,17.93a.82.82,0,0,1-.31,1.3l-10.42,4.1A.8.8,0,0,1,238.22,435.51Zm-11.47-16.07,11.73,14.28,8.78-3.46c-9.8-11.08-13.23-15.07-14.46-16.56Z"></path><path class="cls-3" d="M238,427.5a5.4,5.4,0,0,1,2.3-2.54,5.08,5.08,0,0,1,5.6.68c3.92,3.27,14.58,12.52,20.61,21.37,2.14,3.14.89,7.12-4.17,6.85-8.31-.45-21.42-4.37-32.12-14.34a4.91,4.91,0,0,1-1.49-4.49,23.44,23.44,0,0,1,1.32-4.62,3.36,3.36,0,0,1,3.88-2l1.44.34A2.3,2.3,0,0,0,238,427.5Z"></path><path d="M262.88,454.68h-.55c-8.73-.47-21.89-4.55-32.62-14.56a5.69,5.69,0,0,1-1.74-5.23,24.18,24.18,0,0,1,1.37-4.78,4.15,4.15,0,0,1,4.82-2.43l1.43.34a1.5,1.5,0,0,0,1.71-.84h0a6.11,6.11,0,0,1,2.65-2.92,5.91,5.91,0,0,1,6.51.76c4.23,3.53,14.73,12.68,20.77,21.55a5.44,5.44,0,0,1,.56,5.7C267.27,453.19,266,454.68,262.88,454.68Zm-29.71-25.5a2.52,2.52,0,0,0-2.33,1.55,22.21,22.21,0,0,0-1.27,4.45,4.07,4.07,0,0,0,1.25,3.74c10.41,9.72,23.15,13.67,31.6,14.12,1.92.11,3.32-.45,4-1.58a3.84,3.84,0,0,0-.5-4c-5.92-8.69-16.28-17.73-20.46-21.21a4.27,4.27,0,0,0-4.7-.58,4.41,4.41,0,0,0-1.93,2.16,3.13,3.13,0,0,1-3.57,1.75l-1.44-.34A2.54,2.54,0,0,0,233.17,429.18Z"></path><path d="M260.65,450.58c-4.82,0-13.91-2.06-28.27-12.94a.8.8,0,0,1-.15-1.14.81.81,0,0,1,1.14-.16c21.76,16.49,30.69,12.1,30.78,12.05a.81.81,0,0,1,.76,1.44A9.7,9.7,0,0,1,260.65,450.58Z"></path><path d="M251.63,441.24a.81.81,0,0,1-.56-.22.83.83,0,0,1,0-1.15l4.22-4.55a.81.81,0,0,1,1.19,1.11L252.22,441A.8.8,0,0,1,251.63,441.24Z"></path><path d="M247.9,438.17a.82.82,0,0,1-.58-.24.81.81,0,0,1,0-1.15L252,432.1a.81.81,0,0,1,1.15,0,.82.82,0,0,1,0,1.15l-4.65,4.68A.8.8,0,0,1,247.9,438.17Z"></path><polygon class="cls-3" points="200.29 421.95 195.49 443.02 187.6 437.01 191.25 416.76 200.29 421.95"></polygon><path d="M195.49,443.83a.87.87,0,0,1-.49-.16l-7.89-6a.83.83,0,0,1-.31-.79l3.65-20.26a.82.82,0,0,1,.46-.59.8.8,0,0,1,.74,0l9,5.19a.81.81,0,0,1,.38.89l-4.79,21.07a.82.82,0,0,1-.52.58A.66.66,0,0,1,195.49,443.83Zm-7-7.16,6.49,4.94,4.38-19.26L191.84,418Z"></path><path class="cls-3" d="M198.21,439.2c-.48,6.56-1.64,19.74-6.6,29.09-1.33,2.51-6.52,2.32-8.41-1.1-3.93-7.13-9-19.24-6-33.87a3.67,3.67,0,0,1,2.05-2.6,24.76,24.76,0,0,1,6-1.81,2.46,2.46,0,0,1,2.88,2.13l.62,5.15.66-.85a3.52,3.52,0,0,1,4.21-1.08l2.49,1.09A3.77,3.77,0,0,1,198.21,439.2Z"></path><path d="M188.17,470.8a6.49,6.49,0,0,1-5.68-3.22c-6.33-11.48-8.38-23.06-6.09-34.42a4.51,4.51,0,0,1,2.51-3.18,25.8,25.8,0,0,1,6.19-1.87,3.26,3.26,0,0,1,2.53.59,3.3,3.3,0,0,1,1.31,2.24l.4,3.29a4.33,4.33,0,0,1,4.61-.72l2.48,1.1a4.56,4.56,0,0,1,2.59,4.65h0c-.61,8.37-2,20.52-6.69,29.41a4.5,4.5,0,0,1-4.11,2.13Zm-2.48-41.12a1.43,1.43,0,0,0-.29,0,24.26,24.26,0,0,0-5.81,1.75,2.85,2.85,0,0,0-1.59,2c-2.22,11-.23,22.18,5.91,33.32a4.89,4.89,0,0,0,4.3,2.38,3,3,0,0,0,2.68-1.27c5.1-9.61,6.12-23.53,6.51-28.77a3,3,0,0,0-1.62-3.05L193.3,435a2.7,2.7,0,0,0-3.24.84l-.66.85a.81.81,0,0,1-1.45-.4l-.63-5.15a1.6,1.6,0,0,0-.66-1.13A1.56,1.56,0,0,0,185.69,429.68Zm12.52,9.52h0Z"></path><path d="M187.29,466.7a.8.8,0,0,1-.69-.38c-9.2-14.45-7.12-31.09-7-31.79a.81.81,0,0,1,.91-.7.82.82,0,0,1,.7.92c0,.16-2.09,16.76,6.78,30.7a.81.81,0,0,1-.25,1.12A.75.75,0,0,1,187.29,466.7Z"></path><path d="M196.59,449a.83.83,0,0,1-.22,0l-6.14-1.77a.82.82,0,0,1,.45-1.57l6.14,1.77a.82.82,0,0,1-.23,1.6Z"></path><path d="M195.42,454.33a.71.71,0,0,1-.29-.05l-5.8-2.18a.81.81,0,0,1,.58-1.52l5.79,2.18a.81.81,0,0,1-.28,1.57Z"></path><path d="M146.79,325.68s29.37-3.5,55.84,11.47a21.18,21.18,0,0,1,10.72,18.54c-.09,15.21-1.7,43-11,67.17a2.57,2.57,0,0,1-3.45,1.42L187,419a2.55,2.55,0,0,1-1.5-1.95c-.88-5.58-3.84-26.79-.87-42.18C188,357,130.5,338.1,130.5,338.1Z"></path><path d="M236.09,416.21l-10.61,7a1.73,1.73,0,0,1-2.23-.28c-6.53-7.16-43.41-47.37-52.65-52.64-10.16-5.78-29.13-14.49-46.36-14.39S103.37,344,103.37,344l24.57-15.88s42.52,4.81,60.49,19.43c16.23,13.19,43.13,57.79,48.2,66.32A1.72,1.72,0,0,1,236.09,416.21Z"></path><path class="cls-4" d="M213.15,377a.82.82,0,0,1-.66-.34c-7.16-10-18.31-23.32-24.57-28.41-6.77-5.51-17.83-10.25-32.87-14.11a.81.81,0,1,1,.4-1.57c15.27,3.91,26.54,8.76,33.5,14.42,6.36,5.17,17.64,18.67,24.86,28.72a.81.81,0,0,1-.18,1.14A.85.85,0,0,1,213.15,377Z"></path><path class="cls-3" d="M127.55,289.44l3.15,6.48a47.56,47.56,0,0,0,16.67,19l2.91,1.9a10.06,10.06,0,0,0,6.29,1.62l.34,0a13.94,13.94,0,0,1,9.47,2.78h0l-7.61,2.45a18.59,18.59,0,0,1-14.06-1.06,39.56,39.56,0,0,1-13.52-11.12c-8.9-11.6-11-18.75-11-18.75Z"></path><path d="M153,325.33a19,19,0,0,1-8.64-2.07,39.9,39.9,0,0,1-13.79-11.35c-8.9-11.59-11-18.71-11.1-19a.82.82,0,0,1,.45-1l7.33-3.23a.82.82,0,0,1,1.06.39l3.14,6.48a46.74,46.74,0,0,0,16.39,18.63l2.9,1.9a9.34,9.34,0,0,0,5.79,1.49l.34,0a14.71,14.71,0,0,1,10,2.95.78.78,0,0,1,.3.78.8.8,0,0,1-.55.64L159,324.38A19.88,19.88,0,0,1,153,325.33Zm-31.74-32.21c.74,2,3.44,8.48,10.6,17.8a38.38,38.38,0,0,0,13.24,10.89,17.6,17.6,0,0,0,13.44,1l6-1.93a13.09,13.09,0,0,0-7.55-1.72l-.34,0a11,11,0,0,1-6.81-1.75l-2.9-1.9a48.36,48.36,0,0,1-17-19.28l-2.8-5.77Z"></path><path d="M117.86,351.56s-9.66,7.37-15,5.25,3.83-11.2,6.52-11.55S117.86,351.56,117.86,351.56Z"></path><path d="M119.54,242.79c4.34-.6,9.3,3.2,8.81,9.69-.41,5.3-5.93,6.9-8.49,9.73-8.28,9.15-.33,19.08-6.8,28.21-6.16,8.69-15.52,2.71-28,12.69-9.85,7.86,26-4.08,13.42,4.21-10,6.62-28.77,6.06-39.37-6.1C49,289.66,46.67,272.31,57,263.93c9.28-7.53,15.84,1.25,25.75-5.81,9.76-7,7.08-13.71,13.17-16.62C104.27,237.52,107.22,244.5,119.54,242.79Z"></path><path class="cls-3" d="M68.14,307.56A75.69,75.69,0,0,1,70.32,298c2.53-7.78,4.26-12.83,12.93-17.45a25.78,25.78,0,0,1,4-1.72L92.54,277s21.63-6.18,30.29,2.17a13.4,13.4,0,0,1,2.15,2.34l5.65,8.51,0,0a9,9,0,0,0-4.43,12.75c3.08,5.41,7.33,11.73,11.56,14.36,1.34.83,12.1,5.26,12.1,5.26s2.64,8.05-13.92,15-28.64,9.41-32.12,17.93c-2,5.05-10.43-19.15-15.82-41.83a9,9,0,0,0-9.59-6.89Z"></path><path d="M103.07,356.82H103c-.78-.06-2.62-.2-7.49-14.19-2.86-8.21-5.89-18.76-8.32-28.94a8.23,8.23,0,0,0-8.72-6.27l-10.21.95a.81.81,0,0,1-.68-.26.82.82,0,0,1-.2-.69,75.19,75.19,0,0,1,2.21-9.72c2.47-7.6,4.26-13.09,13.31-17.92A27.07,27.07,0,0,1,87,278l5.24-1.75c.94-.27,22.22-6.23,31.11,2.36l.37.35a11.55,11.55,0,0,1,1.91,2.13l5.64,8.5a.83.83,0,0,1,.1.69.85.85,0,0,1-.47.51l-.06,0a8.17,8.17,0,0,0-4,11.6c4.08,7.15,8,12,11.29,14.07.94.58,7.68,3.43,12,5.19a.81.81,0,0,1,.46.5c.12.36,2.68,8.85-14.38,16-3.73,1.55-7.31,2.91-10.46,4.11-10.83,4.12-18.65,7.1-21.21,13.38C104.12,356.64,103.48,356.82,103.07,356.82Zm-.17-1.57ZM79.18,305.76a9.89,9.89,0,0,1,9.56,7.55c5.2,21.88,11.92,40.4,14.23,41.82a.93.93,0,0,0,0-.1c2.83-6.94,10.93-10,22.14-14.29,3.14-1.19,6.7-2.55,10.41-4.09,13.66-5.7,13.73-12.1,13.53-13.63-2.16-.89-10.57-4.37-11.82-5.15-3.59-2.23-7.57-7.16-11.84-14.65a9.73,9.73,0,0,1-.74-8,9.83,9.83,0,0,1,4.73-5.5L124.31,282a10.77,10.77,0,0,0-1.67-1.84l-.38-.36c-8.23-7.94-29.28-2-29.5-2l-5.2,1.74a25.37,25.37,0,0,0-3.93,1.66c-8.48,4.52-10.09,9.48-12.53,17a69,69,0,0,0-2,8.45l9.15-.85C78.58,305.77,78.88,305.76,79.18,305.76Z"></path><path class="cls-3" d="M132.7,327.92l-8-2.28a3.57,3.57,0,0,0-3.39.81l-3.48,3.22a3.53,3.53,0,0,1-2.45.94c-4,0-22.18-4.27-24.17-7.29-1-1.49-2.48-6.73-3.61-11.06a7.65,7.65,0,0,0-8.12-5.69l-8,.75s3.45,19.29,10.39,25.14c5.39,4.54,17.57,6.28,35,4.25a11.27,11.27,0,0,0,6.49-4.44c1.82-2.44,6.65-1.5,9.44-2.35A1,1,0,0,0,132.7,327.92Z"></path><path d="M103.44,338.36c-10.36,0-18-1.79-22.16-5.28-7.09-6-10.52-24.81-10.67-25.61a.81.81,0,0,1,.16-.64.83.83,0,0,1,.57-.32l8-.75a8.43,8.43,0,0,1,9,6.3c2.07,7.92,3.09,10.17,3.51,10.81,1.68,2.56,19.16,6.88,23.5,6.93a2.78,2.78,0,0,0,1.89-.73l3.48-3.22a4.37,4.37,0,0,1,4.16-1l8,2.28h0a1.85,1.85,0,0,1,1.34,1.77,1.83,1.83,0,0,1-1.31,1.78,16,16,0,0,1-3.64.49c-2.18.14-4.43.29-5.39,1.58a12.1,12.1,0,0,1-7,4.76A119.12,119.12,0,0,1,103.44,338.36ZM72.38,308.05c.77,3.79,4.13,18.89,10,23.79,5.35,4.5,17.87,6,34.36,4.07h0a10.7,10.7,0,0,0,5.93-4.12c1.42-1.9,4.17-2.07,6.59-2.23a15.51,15.51,0,0,0,3.27-.42.21.21,0,0,0,.16-.22.2.2,0,0,0-.16-.21l-8-2.29a2.74,2.74,0,0,0-2.61.63l-3.49,3.22a4.31,4.31,0,0,1-3,1.15h-.05c-3.89,0-22.61-4.27-24.84-7.65-.85-1.29-2.1-5.09-3.72-11.3a6.81,6.81,0,0,0-7.25-5.09Z"></path><path class="cls-3" d="M93.44,277.17S98,262.6,98.11,260.84a3.13,3.13,0,0,1-1.36-3c.16-4.22,4.34-2.13,4.34-2.13l.41.1a12.79,12.79,0,0,0,7.25-.36l4.89-1.7s1,1.79-.17,5.26a12,12,0,0,0-.16,5.59,1,1,0,0,1-.81,1.11l-1.31.2a9,9,0,0,1-2.42,3.54,1.58,1.58,0,0,1-1.13.41,7.2,7.2,0,0,1-2.41-.56l-.74,6.18,3.25-.08s1.17,3.87-5,6.67c-3.39,1.55-8.2,1.24-11.82.65a2,2,0,0,1-.69-3.71Z"></path><path d="M96.43,284a35.64,35.64,0,0,1-5.62-.49,2.82,2.82,0,0,1-1-5.22l2.92-1.7c1.66-5.36,4-13.27,4.47-15.43a4.14,4.14,0,0,1-1.29-3.36,3.38,3.38,0,0,1,1.46-3c1.5-.89,3.48-.07,4,.15l.33.08a12.08,12.08,0,0,0,6.79-.33l4.89-1.71a.82.82,0,0,1,1,.36c.05.09,1.19,2.16-.11,5.94a11.41,11.41,0,0,0-.12,5.2,1.8,1.8,0,0,1-1.5,2l-.87.13a9.16,9.16,0,0,1-2.44,3.41,2.38,2.38,0,0,1-1.72.62,8,8,0,0,1-1.67-.27l-.51,4.24,2.31-.05a.83.83,0,0,1,.8.57c0,.19,1.3,4.59-5.42,7.65A16.2,16.2,0,0,1,96.43,284ZM99,256a1.45,1.45,0,0,0-.76.18c-.41.24-.63.81-.66,1.68a2.36,2.36,0,0,0,.93,2.23.83.83,0,0,1,.42.79c-.16,1.8-4.24,15-4.7,16.5a.84.84,0,0,1-.37.46l-3.2,1.86a1.19,1.19,0,0,0,.42,2.2c3.39.56,8.11.91,11.35-.58,4-1.83,4.58-4.05,4.6-5.1l-2.51.06a.9.9,0,0,1-.62-.26.86.86,0,0,1-.21-.65l.74-6.18a.82.82,0,0,1,1.12-.65,6.68,6.68,0,0,0,2.14.5.74.74,0,0,0,.54-.21,8.1,8.1,0,0,0,2.22-3.26.82.82,0,0,1,.63-.48l1.31-.2a.16.16,0,0,0,.13-.18,12.87,12.87,0,0,1,.19-6,7.54,7.54,0,0,0,.43-4L109,256.24a13.56,13.56,0,0,1-7.7.38l-.41-.1a.49.49,0,0,1-.17-.06A4.67,4.67,0,0,0,99,256Zm-5.55,21.14Z"></path><path d="M105.23,270.13a.84.84,0,0,1-.35-.07l-.9-.43a.81.81,0,1,1,.69-1.47l.9.42a.81.81,0,0,1,.39,1.08A.79.79,0,0,1,105.23,270.13Z"></path><path d="M171.4,320.32l-37.05,11.27,12.37-42a4.94,4.94,0,0,1,3.32-3.32l30.07-9.14a2.46,2.46,0,0,1,3.15,3Z"></path><path class="cls-3" d="M162.57,303.75a5.62,5.62,0,0,1-3.25,3.49c-1.36.41-2.11-.48-1.67-2a5.59,5.59,0,0,1,3.25-3.49C162.26,301.34,163,302.23,162.57,303.75Z"></path><path d="M170.11,323.16,112,340.83a2.27,2.27,0,0,1-2.84-1.51L109,339l62.47-19,.17.31A2.27,2.27,0,0,1,170.11,323.16Z"></path><polygon class="cls-3" points="208.81 114.11 253.17 127 284.65 91.98 208.81 114.11"></polygon><polygon class="cls-1" points="230.92 134.92 224.73 118.74 265.96 101.89 232.52 121 241.8 123.7 230.92 134.92"></polygon><path class="cls-3" d="M232,130.27h-.09a.76.76,0,0,1-.66-.84l.88-7.25a.76.76,0,1,1,1.5.18l-.88,7.25A.75.75,0,0,1,232,130.27Z"></path><path d="M45.4,240.81a.8.8,0,0,1-.57-.24.81.81,0,0,1,0-1.15l1.89-1.89a.81.81,0,0,1,1.15,1.15L46,240.57A.82.82,0,0,1,45.4,240.81Z"></path><path d="M52.55,233.66a.85.85,0,0,1-.58-.23.81.81,0,0,1,0-1.15l1.89-1.9a.83.83,0,0,1,1.15,0,.81.81,0,0,1,0,1.15l-1.89,1.9A.83.83,0,0,1,52.55,233.66Z"></path><path d="M54.44,240.81a.82.82,0,0,1-.58-.24L52,238.68a.81.81,0,0,1,1.15-1.15L55,239.42a.81.81,0,0,1,0,1.15A.78.78,0,0,1,54.44,240.81Z"></path><path d="M47.29,233.66a.83.83,0,0,1-.57-.23l-1.89-1.9a.81.81,0,0,1,0-1.15.83.83,0,0,1,1.15,0l1.89,1.9a.81.81,0,0,1,0,1.15A.85.85,0,0,1,47.29,233.66Z"></path><path d="M137.11,41.64a.81.81,0,0,1-.54-1.42l2-1.77a.81.81,0,1,1,1.08,1.21l-2,1.78A.81.81,0,0,1,137.11,41.64Z"></path><path d="M144.67,34.94a.81.81,0,0,1-.54-1.42l2-1.77a.81.81,0,0,1,1.15.07.83.83,0,0,1-.07,1.15l-2,1.77A.79.79,0,0,1,144.67,34.94Z"></path><path d="M146.13,42.19a.8.8,0,0,1-.61-.27l-1.78-2A.81.81,0,0,1,145,38.84l1.77,2a.81.81,0,0,1-.6,1.35Z"></path><path d="M139.43,34.62a.8.8,0,0,1-.61-.27l-1.77-2a.81.81,0,0,1,.07-1.15.8.8,0,0,1,1.14.07l1.78,2a.83.83,0,0,1-.07,1.15A.81.81,0,0,1,139.43,34.62Z"></path><path d="M117.86,66.26h-.26a4.17,4.17,0,0,1-3.91-4.42,4.17,4.17,0,1,1,4.17,4.43Zm0-6.72a2.56,2.56,0,0,0-2.54,2.39h0a2.55,2.55,0,1,0,2.7-2.38Zm-3.35,2.34h0Z"></path><path d="M309.94,448.42a.81.81,0,0,1-.54-1.42l2-1.77a.81.81,0,1,1,1.08,1.21l-2,1.78A.86.86,0,0,1,309.94,448.42Z"></path><path d="M317.51,441.72a.81.81,0,0,1-.54-1.42l2-1.77a.81.81,0,0,1,1.15.07.83.83,0,0,1-.07,1.15l-2,1.77A.76.76,0,0,1,317.51,441.72Z"></path><path d="M319,449a.8.8,0,0,1-.61-.27l-1.77-2a.81.81,0,0,1,.07-1.15.8.8,0,0,1,1.14.07l1.78,2a.83.83,0,0,1-.07,1.15A.81.81,0,0,1,319,449Z"></path><path d="M312.26,441.4a.82.82,0,0,1-.61-.27l-1.77-2a.81.81,0,0,1,1.22-1.08l1.77,2a.81.81,0,0,1-.61,1.35Z"></path><path class="cls-4" d="M112.26,195.09c-1.9,0-3.81-.06-5.69-.18a.83.83,0,0,1-.76-.87.81.81,0,0,1,.87-.76c2.12.14,4.29.2,6.44.18h0a.81.81,0,0,1,0,1.62Zm7.36-.3a.81.81,0,0,1-.06-1.62c2.11-.17,4.27-.41,6.41-.73a.81.81,0,1,1,.23,1.61c-2.17.32-4.36.57-6.51.74Zm-19.46-.54H100c-2.16-.3-4.34-.69-6.46-1.16a.81.81,0,1,1,.35-1.58c2.08.45,4.21.84,6.34,1.13a.83.83,0,0,1,.69.92A.81.81,0,0,1,100.16,194.25Zm32.33-1.33a.82.82,0,0,1-.8-.65.81.81,0,0,1,.63-1c2.07-.44,4.19-.95,6.28-1.52a.81.81,0,0,1,.43,1.57c-2.13.58-4.27,1.1-6.37,1.54Zm-45-1.46-.24,0c-2.08-.63-4.17-1.35-6.21-2.14a.8.8,0,0,1-.46-1,.81.81,0,0,1,1-.47c2,.78,4.05,1.49,6.09,2.1a.81.81,0,0,1,.54,1A.79.79,0,0,1,87.46,191.46Zm57.58-2a.8.8,0,0,1-.77-.55.81.81,0,0,1,.52-1c2-.67,4.06-1.4,6.09-2.18a.8.8,0,0,1,1.05.46.81.81,0,0,1-.47,1c-2.05.8-4.13,1.54-6.16,2.21A.78.78,0,0,1,145,189.51Zm-69.69-2.77a.81.81,0,0,1-.39-.1,28.57,28.57,0,0,1-5.46-3.84.81.81,0,0,1-.07-1.15.82.82,0,0,1,1.15-.06,27,27,0,0,0,5.15,3.62.81.81,0,0,1,.34,1.1A.83.83,0,0,1,75.35,186.74Zm81.84-1.91a.81.81,0,0,1-.33-1.56c1.94-.85,3.92-1.77,5.87-2.73a.81.81,0,1,1,.72,1.45c-2,1-4,1.91-5.94,2.77A.71.71,0,0,1,157.19,184.83Zm11.68-5.75a.81.81,0,0,1-.39-1.52c1.87-1,3.77-2.1,5.64-3.2a.8.8,0,0,1,1.11.28.82.82,0,0,1-.28,1.12c-1.89,1.11-3.8,2.2-5.69,3.23A.92.92,0,0,1,168.87,179.08Zm-103.22-.86a.81.81,0,0,1-.65-.32,41.13,41.13,0,0,1-3.53-5.62.81.81,0,1,1,1.44-.75,39.37,39.37,0,0,0,3.39,5.39.81.81,0,0,1-.65,1.3Zm114.43-5.77a.81.81,0,0,1-.44-1.5c1.8-1.15,3.62-2.36,5.4-3.59a.82.82,0,0,1,1.13.21.81.81,0,0,1-.21,1.13c-1.8,1.24-3.63,2.46-5.44,3.62A.8.8,0,0,1,180.08,172.45Zm-120.47-5.7a.81.81,0,0,1-.76-.54,52.31,52.31,0,0,1-1.8-6.36.83.83,0,0,1,.63-1,.82.82,0,0,1,1,.63,51.33,51.33,0,0,0,1.74,6.16.8.8,0,0,1-.5,1A.65.65,0,0,1,59.61,166.75Zm131.2-1.68a.84.84,0,0,1-.66-.33.82.82,0,0,1,.18-1.14c1.72-1.27,3.46-2.59,5.17-3.93a.81.81,0,0,1,1.14.14.82.82,0,0,1-.14,1.14c-1.72,1.35-3.47,2.68-5.21,4A.77.77,0,0,1,190.81,165.07Zm10.25-8a.79.79,0,0,1-.62-.3.81.81,0,0,1,.1-1.14c1.66-1.39,3.32-2.81,4.92-4.24a.82.82,0,0,1,1.15.07.81.81,0,0,1-.07,1.15c-1.61,1.43-3.28,2.87-5,4.27A.83.83,0,0,1,201.06,157Zm-144.2-3a.81.81,0,0,1-.81-.73c-.16-1.77-.25-3.56-.25-5.33,0-.42,0-.85,0-1.27a.82.82,0,0,1,.82-.79h0a.81.81,0,0,1,.79.83c0,.41,0,.82,0,1.23,0,1.72.08,3.46.24,5.17a.82.82,0,0,1-.73.89Zm154-5.69a.81.81,0,0,1-.56-1.4c2.14-2,3.69-3.61,4.62-4.57a.81.81,0,0,1,1.17,1.13c-.94,1-2.51,2.56-4.67,4.62A.86.86,0,0,1,210.81,148.37ZM57.16,141.08H57a.81.81,0,0,1-.69-.92,53.34,53.34,0,0,1,1.32-6.47.81.81,0,0,1,1.57.43A51.57,51.57,0,0,0,58,140.38.81.81,0,0,1,57.16,141.08Zm3.4-12.52a.91.91,0,0,1-.32-.06.82.82,0,0,1-.43-1.07,46.68,46.68,0,0,1,3-5.91.81.81,0,1,1,1.39.84,46,46,0,0,0-2.87,5.7A.81.81,0,0,1,60.56,128.56Zm6.67-11.12a.84.84,0,0,1-.52-.18.83.83,0,0,1-.11-1.15,42.32,42.32,0,0,1,4.62-4.75.81.81,0,0,1,1.15.07.82.82,0,0,1-.08,1.15,39.88,39.88,0,0,0-4.43,4.57A.83.83,0,0,1,67.23,117.44ZM77,108.89a.8.8,0,0,1-.69-.38.81.81,0,0,1,.25-1.12,44,44,0,0,1,5.85-3.1.81.81,0,0,1,1.07.42.81.81,0,0,1-.42,1.07,42.5,42.5,0,0,0-5.63,3A.75.75,0,0,1,77,108.89Z"></path><path class="cls-4" d="M167.39,271.12a.78.78,0,0,1-.26,0,.82.82,0,0,1-.52-1s.76-2.29,1.88-6.22a.81.81,0,0,1,1-.56.8.8,0,0,1,.56,1c-1.13,4-1.88,6.26-1.89,6.29A.8.8,0,0,1,167.39,271.12Zm3.6-12.53-.21,0a.82.82,0,0,1-.58-1c.54-2.08,1.08-4.2,1.58-6.3a.81.81,0,0,1,1-.6.8.8,0,0,1,.6,1c-.5,2.11-1,4.24-1.59,6.33A.8.8,0,0,1,171,258.59Zm3-12.66-.18,0a.82.82,0,0,1-.62-1c.47-2.1.92-4.24,1.34-6.36a.82.82,0,1,1,1.6.32c-.43,2.13-.88,4.28-1.35,6.39A.81.81,0,0,1,174,245.93Zm2.56-12.77-.15,0a.82.82,0,0,1-.66-.94c.39-2.14.75-4.3,1.09-6.4a.81.81,0,1,1,1.61.25c-.34,2.12-.71,4.29-1.09,6.44A.83.83,0,0,1,176.6,233.16Zm2-12.86h-.11a.81.81,0,0,1-.69-.92c.29-2.15.56-4.32.8-6.44a.82.82,0,0,1,1.62.18c-.24,2.14-.52,4.32-.81,6.48A.83.83,0,0,1,178.63,220.3Zm1.46-12.94H180a.8.8,0,0,1-.74-.88c.19-2.18.35-4.36.48-6.47a.81.81,0,1,1,1.62.1c-.12,2.13-.29,4.32-.48,6.52A.81.81,0,0,1,180.09,207.36Zm.78-13h0a.82.82,0,0,1-.79-.84c.07-2.15.1-4.3.1-6.39v-.09a.82.82,0,0,1,.82-.82.82.82,0,0,1,.81.82v.09c0,2.1,0,4.27-.1,6.44A.82.82,0,0,1,180.87,194.37Zm0-13a.8.8,0,0,1-.81-.78c-.08-2.18-.2-4.36-.36-6.47a.81.81,0,1,1,1.62-.12c.16,2.13.28,4.33.36,6.53a.8.8,0,0,1-.78.84Zm-1-13a.81.81,0,0,1-.8-.71c-.26-2.17-.57-4.33-.92-6.4a.81.81,0,1,1,1.6-.27c.36,2.1.67,4.28.93,6.48a.8.8,0,0,1-.71.9Zm-2.18-12.82a.8.8,0,0,1-.79-.63c-.49-2.14-1-4.24-1.63-6.25a.81.81,0,0,1,1.56-.46c.61,2,1.16,4.18,1.65,6.35a.81.81,0,0,1-.61,1A.55.55,0,0,1,177.69,155.55ZM174,143.08a.81.81,0,0,1-.76-.53c-.76-2-1.6-4-2.49-5.94a.81.81,0,1,1,1.47-.68c.91,1.93,1.76,4,2.54,6a.81.81,0,0,1-.47,1.05A.74.74,0,0,1,174,143.08Zm-5.53-11.76a.8.8,0,0,1-.7-.4c-1.09-1.87-2.27-3.68-3.5-5.38a.82.82,0,1,1,1.32-1c1.26,1.75,2.47,3.6,3.59,5.52a.81.81,0,0,1-.3,1.11A.77.77,0,0,1,168.47,131.32Zm-7.63-10.49a.84.84,0,0,1-.61-.27,55.3,55.3,0,0,0-4.55-4.51.8.8,0,0,1-.07-1.14.82.82,0,0,1,1.15-.08,58.52,58.52,0,0,1,4.68,4.64.81.81,0,0,1-.06,1.15A.8.8,0,0,1,160.84,120.83Zm-9.73-8.59a.78.78,0,0,1-.46-.14,58.23,58.23,0,0,0-5.45-3.37.81.81,0,0,1,.77-1.43,60.27,60.27,0,0,1,5.61,3.46.83.83,0,0,1,.2,1.13A.81.81,0,0,1,151.11,112.24ZM139.72,106a.85.85,0,0,1-.31-.06c-1.94-.81-4-1.54-6-2.17a.82.82,0,1,1,.48-1.56c2.12.65,4.2,1.4,6.18,2.23a.8.8,0,0,1,.44,1.06A.81.81,0,0,1,139.72,106Z"></path><path class="cls-2" d="M400.53,439.78s-26.11-51-13.43-100.69c.43-1.66,6.88.19,7.4-1.47.65-2.11-4.6-7.73-3.79-9.83A94.63,94.63,0,0,1,403.32,305s10.34,15.06,15.71,38.57c.41,1.77-6.19,6.71-5.85,8.58s7.59.45,7.84,2.29C424.32,378.27,421.48,408.44,400.53,439.78Z"></path><path class="cls-4" d="M377.8,379.51c-1.09-1.48-7.27,3.88-8.38,2.47s1.85-11.45.75-12.77c-21.57-25.85-44.53-37.7-44.53-37.7a126.37,126.37,0,0,0,.07,38.46c.3,1.95,9.1,5.19,9.48,7.1.42,2.1-6.76,4.71-6.25,6.76,7.56,30.29,24.06,54,40.4,72.51a170.68,170.68,0,0,0,34.77-16.75A146.61,146.61,0,0,0,377.8,379.51Z"></path><path class="cls-1" d="M384.25,439.33a.78.78,0,0,1-.67-.36c-5.78-8.58-11.42-17.44-16.75-26.33a.8.8,0,0,1,.28-1.11.82.82,0,0,1,1.12.28c5.31,8.86,10.93,17.69,16.69,26.25a.8.8,0,0,1-.22,1.13A.73.73,0,0,1,384.25,439.33Z"></path><path class="cls-1" d="M360.08,400.27a.79.79,0,0,1-.7-.41c-8.62-15.19-16.67-31-23.92-46.85l-3.32-7.27a.81.81,0,0,1,.41-1.07.8.8,0,0,1,1.07.4l3.32,7.26c7.23,15.86,15.26,31.58,23.85,46.73a.82.82,0,0,1-.31,1.11A.79.79,0,0,1,360.08,400.27Z"></path><path class="cls-4" d="M399.05,442.64s-10.33-54.57,43.08-73.51C442.13,369.13,446.61,416.76,399.05,442.64Z"></path><path class="cls-1" d="M408.64,428.43a.65.65,0,0,1-.27-.05.8.8,0,0,1-.5-1c6.13-17.5,25.19-44.6,25.38-44.88a.81.81,0,0,1,1.33.94c-.19.27-19.12,27.19-25.18,44.48A.81.81,0,0,1,408.64,428.43Z"></path></g></svg>