<svg width="200" height="200" viewBox="0 0 200 200" fill="none" xmlns="http://www.w3.org/2000/svg">
<circle cx="100" cy="100" r="100" fill="white"/>
<path d="M38 71.0333C38 67.183 39.6462 63.4904 42.5765 60.7678C45.5067 58.0452 49.481 56.5156 53.625 56.5156H147.375C151.519 56.5156 155.493 58.0452 158.424 60.7678C161.354 63.4904 163 67.183 163 71.0333V129.104C163 132.954 161.354 136.647 158.424 139.37C155.493 142.092 151.519 143.622 147.375 143.622H53.625C49.481 143.622 45.5067 142.092 42.5765 139.37C39.6462 136.647 38 132.954 38 129.104V71.0333ZM53.625 63.7745C51.553 63.7745 49.5659 64.5392 48.1007 65.9005C46.6356 67.2618 45.8125 69.1082 45.8125 71.0333V72.6085L100.5 103.096L155.188 72.6085V71.0333C155.188 69.1082 154.364 67.2618 152.899 65.9005C151.434 64.5392 149.447 63.7745 147.375 63.7745H53.625ZM155.188 81.0723L118.406 101.579L155.188 122.607V81.0723ZM154.922 130.984L110.859 105.789L100.5 111.56L90.1406 105.789L46.0781 130.977C46.5221 132.522 47.5025 133.887 48.8671 134.861C50.2317 135.835 51.9043 136.363 53.625 136.363H147.375C149.095 136.363 150.766 135.836 152.131 134.864C153.495 133.891 154.476 132.528 154.922 130.984ZM45.8125 122.607L82.5938 101.579L45.8125 81.0723V122.607Z" fill="#2C6EBF"/>
</svg>
