<?xml version="1.0" encoding="UTF-8"?>
<!DOCTYPE svg PUBLIC "-//W3C//DTD SVG 1.1//EN" "http://www.w3.org/Graphics/SVG/1.1/DTD/svg11.dtd">
<svg xmlns="http://www.w3.org/2000/svg" version="1.1" width="792px" height="792px" style="shape-rendering:geometricPrecision; text-rendering:geometricPrecision; image-rendering:optimizeQuality; fill-rule:evenodd; clip-rule:evenodd" xmlns:xlink="http://www.w3.org/1999/xlink">
<g><path style="opacity:0.981" fill="#000000" d="M 339.5,77.5 C 376.835,77.3333 414.168,77.5 451.5,78C 472.56,82.0605 485.394,94.5605 490,115.5C 490.5,124.827 490.666,134.161 490.5,143.5C 540.168,143.333 589.834,143.5 639.5,144C 655.595,146.762 666.095,155.928 671,171.5C 672.416,192.464 672.916,213.464 672.5,234.5C 661.167,234.5 649.833,234.5 638.5,234.5C 631.1,382.835 623.6,531.168 616,679.5C 612.57,701.594 600.07,715.427 578.5,721C 456.5,721.667 334.5,721.667 212.5,721C 190.923,715.42 178.423,701.587 175,679.5C 167.4,531.168 159.9,382.835 152.5,234.5C 141.167,234.5 129.833,234.5 118.5,234.5C 118.072,213.793 118.572,193.127 120,172.5C 124.492,156.341 134.992,146.841 151.5,144C 201.166,143.5 250.832,143.333 300.5,143.5C 300.334,134.161 300.5,124.827 301,115.5C 305.789,94.544 318.622,81.8773 339.5,77.5 Z M 346.5,102.5 C 381.535,102.041 416.535,102.541 451.5,104C 457.667,106.167 461.833,110.333 464,116.5C 465.381,125.432 465.881,134.432 465.5,143.5C 418.833,143.5 372.167,143.5 325.5,143.5C 325.334,135.826 325.5,128.159 326,120.5C 328.502,109.508 335.335,103.508 346.5,102.5 Z M 156.5,168.5 C 315.834,168.333 475.167,168.5 634.5,169C 640.341,169.181 644.175,172.015 646,177.5C 646.5,188.161 646.667,198.828 646.5,209.5C 479.167,209.5 311.833,209.5 144.5,209.5C 144.333,198.495 144.5,187.495 145,176.5C 147.476,171.693 151.31,169.027 156.5,168.5 Z M 177.5,234.5 C 322.833,234.5 468.167,234.5 613.5,234.5C 605.768,379.468 598.268,524.468 591,669.5C 592.329,683.702 586.162,692.536 572.5,696C 454.167,696.667 335.833,696.667 217.5,696C 209.209,694.377 203.709,689.544 201,681.5C 193.132,532.473 185.299,383.473 177.5,234.5 Z"/></g>
<g><path style="opacity:0.968" fill="#000000" d="M 278.5,283.5 C 288.832,284.339 293.665,290.006 293,300.5C 298.279,411.016 303.779,521.516 309.5,632C 308.639,644.253 302.305,648.92 290.5,646C 288,644.833 286.167,643 285,640.5C 278.503,527.894 272.67,415.227 267.5,302.5C 265.848,292.775 269.514,286.442 278.5,283.5 Z"/></g>
<g><path style="opacity:0.952" fill="#000000" d="M 394.5,283.5 C 401.992,284.159 406.492,288.159 408,295.5C 408.667,408.833 408.667,522.167 408,635.5C 404.452,647.351 397.286,650.184 386.5,644C 384.438,641.932 383.272,639.432 383,636.5C 382.333,522.833 382.333,409.167 383,295.5C 384.348,288.987 388.181,284.987 394.5,283.5 Z"/></g>
<g><path style="opacity:0.97" fill="#000000" d="M 509.5,283.5 C 520.682,284.821 525.349,291.155 523.5,302.5C 518.111,413.839 512.611,525.172 507,636.5C 502.128,648.402 494.628,650.402 484.5,642.5C 482.882,639.361 481.882,636.028 481.5,632.5C 487.232,522.185 492.732,411.852 498,301.5C 497.385,292.343 501.218,286.343 509.5,283.5 Z"/></g>
</svg>
